<svg xmlns="http://www.w3.org/2000/svg" viewBox="0 0 100 100"><path d="M18 9c-4.951 0-9 4.049-9 9v42c0 4.951 4.049 9 9 9h13v13c0 4.951 4.049 9 9 9h42c4.951 0 9-4.049 9-9V40c0-4.951-4.049-9-9-9H69V18c0-4.951-4.049-9-9-9H18zm0 4h42c2.805 0 5 2.195 5 5v42c0 2.805-2.195 5-5 5H18c-2.805 0-5-2.195-5-5V18c0-2.805 2.195-5 5-5zm55.75 22H82c.655 0 1.275.124 1.844.344L69 50.156V39.75L73.75 35zm12.906 3.156c.22.569.344 1.189.344 1.844v8.219L48.219 87H40a5.107 5.107 0 0 1-1.844-.344L55.813 69H60c4.951 0 9-4.049 9-9v-4.188l17.656-17.656zM87 53.875V64.25L64.281 87H53.875L87 53.875zM39.75 69h10.438L35.343 83.813A5.097 5.097 0 0 1 35 82v-8.25L39.75 69zm47.25.938V82c0 2.805-2.195 5-5 5H69.906L87 69.937z"/></svg>
