<svg xmlns="http://www.w3.org/2000/svg" viewBox="0 0 122.88 112.75" style="enable-background:new 0 0 122.88 112.75" xml:space="preserve"><path d="M56.66 105.35c-5.94 4.6-13.4 7.34-21.5 7.34C15.74 112.69 0 96.95 0 77.53c0-13.47 7.58-25.17 18.7-31.07a41.676 41.676 0 0 0 10.65 18.16c4.64 4.64 10.38 8.2 16.79 10.24a41.573 41.573 0 0 0 10.52 30.49z" style="fill-rule:evenodd;clip-rule:evenodd;fill:#6bbe66"/><path d="M122.88 77.59c0 19.42-15.74 35.16-35.16 35.16S52.56 97 52.56 77.59c0-.41.01-.82.02-1.23 2.03.3 4.11.46 6.23.46 11.5 0 21.92-4.66 29.46-12.2 5.45-5.45 9.4-12.41 11.17-20.19 13.66 4.83 23.44 17.85 23.44 33.16z" style="fill-rule:evenodd;clip-rule:evenodd;fill:#ff4141"/><path d="M93.97 35.16c0 19.42-15.74 35.16-35.16 35.16S23.65 54.58 23.65 35.16 39.39 0 58.81 0s35.16 15.74 35.16 35.16z" style="fill-rule:evenodd;clip-rule:evenodd;fill:#00a1f1"/></svg>