<svg viewBox="0 0 1046 1024" xmlns="http://www.w3.org/2000/svg"><path d="M958.638 65.362H827.915V0H217.872v65.362H87.15V0C52.869.344 0 31.834 0 72.404v879.192c0 40.59 31.08 72.06 87.149 72.404v-65.362h130.723V1024h610.043v-65.362h130.723V1024c34.281-.363 87.15-31.815 87.15-72.404V72.404c0-40.57-52.869-72.04-87.15-72.404v65.362zm-871.49 631.83h130.724v130.723H87.15V697.19zm740.767 0h130.723v130.723H827.915V697.19zM87.149 435.744h130.723v130.723H87.15V435.745zm740.766 0h130.723v130.723H827.915V435.745zM87.149 174.298h130.723V305.02H87.15V174.298zm740.766 0h130.723V305.02H827.915V174.298zM370.383 724.04V310.303l355.365 206.869L370.383 724.04z"/></svg>